<svg xmlns="http://www.w3.org/2000/svg" width="1200" height="630" viewBox="0 0 1200 630" role="img" aria-label="ESP32 Edge Assistant">
  <rect width="1200" height="630" fill="#0F1419"/>
  <rect x="0" y="0" width="1200" height="8" fill="#0F256E"/>
  <!-- board -->
  <rect x="280" y="120" width="640" height="360" rx="24" fill="#1A222C"/>
  <rect x="280" y="120" width="640" height="360" rx="24" fill="none" stroke="#0F256E" stroke-width="3"/>
  <!-- chips -->
  <rect x="340" y="180" width="160" height="120" rx="8" fill="#0F256E"/>
  <rect x="540" y="180" width="120" height="80" rx="6" fill="#5A6572"/>
  <rect x="700" y="180" width="160" height="80" rx="6" fill="#2A3440"/>
  <!-- pins -->
  <g fill="#E2E6EB">
    <rect x="300" y="200" width="12" height="28" rx="2"/>
    <rect x="300" y="240" width="12" height="28" rx="2"/>
    <rect x="300" y="280" width="12" height="28" rx="2"/>
    <rect x="300" y="320" width="12" height="28" rx="2"/>
    <rect x="888" y="200" width="12" height="28" rx="2"/>
    <rect x="888" y="240" width="12" height="28" rx="2"/>
    <rect x="888" y="280" width="12" height="28" rx="2"/>
    <rect x="888" y="320" width="12" height="28" rx="2"/>
  </g>
  <!-- antenna -->
  <circle cx="820" cy="340" r="36" fill="none" stroke="#0F256E" stroke-width="6"/>
  <circle cx="820" cy="340" r="16" fill="#0F256E"/>
  <text x="80" y="560" fill="#FFFFFF" font-family="Arial, Helvetica, sans-serif" font-size="42" font-weight="700">ESP32 Edge Assistant</text>
</svg>
